# xmcd
#
# Track frame offsets: 
#        150
#        17520
#        37867
#        52915
#        70085
#        98865
#        119425
#        131960
#        153005
#        187527
#        202127
#
# Disc length: 2915 seconds
#
# Revision: 4
# Processed by: cddbd v1.5.2PL0 Copyright (c) Steve Scherf et al.
# Submitted via: ExactAudioCopyFreeDBPlugin 1.0
#
DISCID=860b610b
DTITLE=Savoy Brown - The Blues Keep Me Holding On
DYEAR=1999
DGENRE=Blues
TTITLE0=Going Down to Mobile
TTITLE1=She's Leaving
TTITLE2=That's All I Want Baby
TTITLE3=The Blues Keep Me Holding On
TTITLE4=Bad Shape
TTITLE5=Mississippi Steamboat
TTITLE6=Ain't No Need to Worry
TTITLE7=Headline News
TTITLE8=Little Red Rooster
TTITLE9=When You've Got a Good Friend
TTITLE10=Everybody Says They Want It
EXTD=YEAR: 1999
EXTT0=
EXTT1=
EXTT2=
EXTT3=
EXTT4=
EXTT5=
EXTT6=
EXTT7=
EXTT8=
EXTT9=
EXTT10=
PLAYORDER=
